<svg width="20" height="24" viewBox="0 0 20 24" fill="none" xmlns="http://www.w3.org/2000/svg">
<path d="M10 16.8C9.41667 16.8 8.83333 16.53 8.39167 16L2.95833 9.48C2.8421 9.33886 2.77692 9.14843 2.77692 8.95C2.77692 8.75157 2.8421 8.56114 2.95833 8.42C3.2 8.13 3.6 8.13 3.84167 8.42L9.275 14.94C9.675 15.42 10.325 15.42 10.725 14.94L16.1583 8.42C16.4 8.13 16.8 8.13 17.0417 8.42C17.2833 8.71 17.2833 9.19 17.0417 9.48L11.6083 16C11.1667 16.53 10.5833 16.8 10 16.8Z" fill="white" fill-opacity="0.5"/>
</svg>
