<svg width="24" height="24" viewBox="0 0 24 24" fill="none" xmlns="http://www.w3.org/2000/svg">
<path d="M18 22C16.886 22 15.941 21.612 15.165 20.836C14.3883 20.0587 14 19.1133 14 18C14 16.8867 14.3883 15.9417 15.165 15.165C15.9417 14.3883 16.8867 14 18 14C19.1133 14 20.0587 14.3883 20.836 15.165C21.6133 15.9417 22.0013 16.8867 22 18C21.9987 19.1133 21.6107 20.0587 20.836 20.836C20.0613 21.6133 19.116 22.0013 18 22ZM19.65 20.196L20.196 19.65L18.385 17.839V15.116H17.615V18.162L19.65 20.196ZM13.77 9.04H20V12.32C20.1867 12.3727 20.3603 12.4363 20.521 12.511C20.681 12.5863 20.8407 12.6747 21 12.776V6.616C21 6.156 20.846 5.772 20.538 5.464C20.23 5.156 19.8457 5.00133 19.385 5H4.615C4.155 5 3.771 5.15433 3.463 5.463C3.155 5.77167 3.00067 6.156 3 6.616V17.385C3 17.845 3.15433 18.2293 3.463 18.538C3.77167 18.8467 4.15567 19.0007 4.615 19H12.089C12.0523 18.8373 12.0283 18.6727 12.017 18.506C12.0057 18.3393 12 18.1707 12 18H4.616C4.462 18 4.32067 17.936 4.192 17.808C4.06333 17.68 3.99933 17.5387 4 17.384V6.616C4 6.462 4.064 6.32067 4.192 6.192C4.32 6.06333 4.461 5.99933 4.615 6H13.769L13.77 9.04ZM4 17.384V18V6V17.384Z" fill="white"/>
</svg>
