<svg width="24" height="24" viewBox="0 0 24 24" fill="none" xmlns="http://www.w3.org/2000/svg">
<path d="M12.594 23.258L12.582 23.26L12.511 23.295L12.491 23.299L12.477 23.295L12.406 23.259C12.3954 23.2563 12.3874 23.2583 12.382 23.265L12.378 23.275L12.361 23.703L12.366 23.723L12.376 23.736L12.48 23.81L12.495 23.814L12.507 23.81L12.611 23.736L12.623 23.72L12.627 23.703L12.61 23.276C12.6074 23.2653 12.602 23.2593 12.594 23.258ZM12.858 23.145L12.844 23.147L12.66 23.24L12.65 23.25L12.647 23.261L12.665 23.691L12.67 23.703L12.6781 23.711L12.879 23.803C12.8917 23.8063 12.9014 23.8037 12.908 23.795L12.912 23.781L12.878 23.167C12.8747 23.1543 12.868 23.147 12.858 23.145ZM12.143 23.147C12.1386 23.1443 12.1334 23.1435 12.1283 23.1446C12.1233 23.1457 12.1189 23.1487 12.116 23.153L12.11 23.167L12.076 23.781C12.0767 23.793 12.0824 23.801 12.0931 23.805L12.108 23.803L12.309 23.71L12.319 23.702L12.322 23.691L12.34 23.261L12.337 23.249L12.327 23.239L12.143 23.147Z" fill="white"/>
<path d="M12.0001 2C10.1435 2 8.36306 2.7375 7.0503 4.05025C5.73755 5.36301 5.00005 7.14348 5.00005 9V12.528C5.0002 12.6831 4.96425 12.8362 4.89505 12.975L3.17805 16.408C3.09418 16.5757 3.05457 16.7621 3.063 16.9494C3.07143 17.1368 3.1276 17.3188 3.2262 17.4783C3.32479 17.6379 3.46252 17.7695 3.62632 17.8608C3.79011 17.9521 3.97453 18 4.16205 18H19.8381C20.0256 18 20.21 17.9521 20.3738 17.8608C20.5376 17.7695 20.6753 17.6379 20.7739 17.4783C20.8725 17.3188 20.9287 17.1368 20.9371 16.9494C20.9455 16.7621 20.9059 16.5757 20.8221 16.408L19.1061 12.975C19.0365 12.8362 19.0002 12.6832 19.0001 12.528V9C19.0001 7.14348 18.2626 5.36301 16.9498 4.05025C15.637 2.7375 13.8566 2 12.0001 2ZM12.0001 21C11.3794 21.0003 10.7739 20.8081 10.2671 20.4499C9.76022 20.0917 9.37694 19.5852 9.17005 19H14.8301C14.6232 19.5852 14.2399 20.0917 13.733 20.4499C13.2262 20.8081 12.6207 21.0003 12.0001 21Z" fill="white"/>
</svg>
