<svg width="24" height="24" viewBox="0 0 24 24" fill="none" xmlns="http://www.w3.org/2000/svg">
<path d="M22.125 18.75C22.125 18.8495 22.0855 18.9448 22.0152 19.0152C21.9448 19.0855 21.8495 19.125 21.75 19.125H19.875V21C19.875 21.0995 19.8355 21.1948 19.7652 21.2652C19.6948 21.3355 19.5995 21.375 19.5 21.375C19.4005 21.375 19.3052 21.3355 19.2348 21.2652C19.1645 21.1948 19.125 21.0995 19.125 21V19.125H17.25C17.1505 19.125 17.0552 19.0855 16.9848 19.0152C16.9145 18.9448 16.875 18.8495 16.875 18.75C16.875 18.6506 16.9145 18.5552 16.9848 18.4848C17.0552 18.4145 17.1505 18.375 17.25 18.375H19.125V16.5C19.125 16.4006 19.1645 16.3052 19.2348 16.2348C19.3052 16.1645 19.4005 16.125 19.5 16.125C19.5995 16.125 19.6948 16.1645 19.7652 16.2348C19.8355 16.3052 19.875 16.4006 19.875 16.5V18.375H21.75C21.8495 18.375 21.9448 18.4145 22.0152 18.4848C22.0855 18.5552 22.125 18.6506 22.125 18.75ZM20.8125 11.6756L12 16.8159L3.1875 11.6756C3.1018 11.6308 3.00209 11.6208 2.9092 11.6478C2.8163 11.6747 2.73742 11.7365 2.68902 11.8203C2.64061 11.904 2.62643 12.0032 2.64945 12.0971C2.67246 12.1911 2.73088 12.2725 2.8125 12.3244L11.8125 17.5744C11.8695 17.6073 11.9342 17.6246 12 17.6246C12.0658 17.6246 12.1305 17.6073 12.1875 17.5744L21.1875 12.3244C21.2323 12.3009 21.2719 12.2687 21.3039 12.2295C21.336 12.1904 21.3597 12.1452 21.3738 12.0966C21.3879 12.048 21.392 11.9971 21.3859 11.9469C21.3798 11.8967 21.3637 11.8482 21.3383 11.8044C21.313 11.7607 21.2791 11.7224 21.2387 11.6921C21.1982 11.6617 21.152 11.6399 21.1029 11.6279C21.0538 11.6158 21.0027 11.6139 20.9528 11.6221C20.9029 11.6303 20.8552 11.6485 20.8125 11.6756ZM2.625 7.50001C2.62507 7.43425 2.64243 7.36966 2.67534 7.31273C2.70825 7.2558 2.75555 7.20852 2.8125 7.17564L11.8125 1.92564C11.8695 1.89272 11.9342 1.8754 12 1.8754C12.0658 1.8754 12.1305 1.89272 12.1875 1.92564L21.1875 7.17564C21.2443 7.2086 21.2915 7.25592 21.3243 7.31284C21.3571 7.36977 21.3743 7.43432 21.3743 7.50001C21.3743 7.56571 21.3571 7.63025 21.3243 7.68718C21.2915 7.74411 21.2443 7.79142 21.1875 7.82439L12.1875 13.0744C12.1305 13.1073 12.0658 13.1246 12 13.1246C11.9342 13.1246 11.8695 13.1073 11.8125 13.0744L2.8125 7.82439C2.75555 7.79151 2.70825 7.74423 2.67534 7.68729C2.64243 7.63036 2.62507 7.56577 2.625 7.50001ZM3.74437 7.50001L12 12.3159L20.2556 7.50001L12 2.68407L3.74437 7.50001ZM13.3125 20.5509L12 21.3159L3.1875 16.1756C3.1018 16.1308 3.00209 16.1208 2.9092 16.1478C2.8163 16.1747 2.73742 16.2365 2.68902 16.3203C2.64061 16.404 2.62643 16.5032 2.64945 16.5971C2.67246 16.6911 2.73088 16.7725 2.8125 16.8244L11.8125 22.0744C11.8695 22.1073 11.9342 22.1246 12 22.1246C12.0658 22.1246 12.1305 22.1073 12.1875 22.0744L13.6875 21.1988C13.7334 21.1759 13.7741 21.1439 13.8071 21.1048C13.8401 21.0656 13.8647 21.0201 13.8795 20.971C13.8942 20.922 13.8988 20.8704 13.8928 20.8195C13.8869 20.7687 13.8706 20.7195 13.8449 20.6752C13.8192 20.6309 13.7848 20.5923 13.7436 20.5618C13.7024 20.5313 13.6555 20.5095 13.6056 20.4979C13.5557 20.4862 13.504 20.4849 13.4535 20.4941C13.4031 20.5032 13.3551 20.5226 13.3125 20.5509Z" fill="white"/>
</svg>
